<svg id="Rhino" xmlns="http://www.w3.org/2000/svg" viewBox="0 0 699.84 961.01"><defs><style>.cls-1{fill:#122b40;}.cls-2{fill:#446cb3;}</style></defs><path class="cls-1" d="M709.5,248.57q2.68,116.28,5.39,232.57L371.41,284.65l-38.07-21.78-.21-.11L212.25,193.61C160.55,160.29,101.82,153.31,52,197l-.17-.15A162.58,162.58,0,0,1,97,162.05L324.18,29.57c29.66-14.58,53.44-14.66,83.22-.34L667.63,178.09A83.21,83.21,0,0,1,709.5,248.57Z" transform="translate(-15.05 -18.56)"/><path class="cls-2" d="M631.44,578.08c90.33,51.68,99.59,174.14,27.25,240.17l-.08-.09c-38,19.77-79.25,21.35-116.27-3L397.53,732.28c33.07,18.92,74.29-4.69,74.7-42.79l2.16-201.24Z" transform="translate(-15.05 -18.56)"/><path class="cls-1" d="M658.61,818.16l.08.09a153.44,153.44,0,0,1-26.18,19.19L412,966a99.85,99.85,0,0,1-99.86.42l-245-140.14A99.83,99.83,0,0,1,17,738.52L19.35,516,397.53,732.28l144.81,82.84C579.36,839.51,620.64,837.93,658.61,818.16Z" transform="translate(-15.05 -18.56)"/><path class="cls-2" d="M212.25,193.61l120.88,69.15c-33-18.7-74.08,4.89-74.49,42.91L256.41,512,98,421.4C6,373.58-9.6,265.08,51.85,196.83L52,197C101.82,153.31,160.55,160.29,212.25,193.61Z" transform="translate(-15.05 -18.56)"/></svg>