<svg id="Rhino" xmlns="http://www.w3.org/2000/svg" viewBox="0 0 699.84 961.01"><defs><style>.cls-1{fill:#fff;}.cls-2{fill:#e0e0e0;}</style></defs><path class="cls-1" d="M716.11,242.44Q718.8,358.72,721.5,475L378,278.52,340,256.74l-.21-.11L218.86,187.48c-51.7-33.32-110.43-40.3-160.23,3.37l-.17-.15a162.58,162.58,0,0,1,45.11-34.78L330.79,23.44C360.45,8.86,384.23,8.78,414,23.1L674.24,172A83.21,83.21,0,0,1,716.11,242.44Z" transform="translate(-21.65 -12.43)"/><path class="cls-2" d="M638.05,572c90.33,51.68,99.59,174.14,27.25,240.17l-.08-.09c-38,19.77-79.25,21.35-116.27-3L404.14,726.15c33.07,18.92,74.29-4.69,74.7-42.79L481,482.12Z" transform="translate(-21.65 -12.43)"/><path class="cls-1" d="M665.22,812l.08.09a153.44,153.44,0,0,1-26.18,19.19L418.65,959.85a99.85,99.85,0,0,1-99.86.42l-245-140.14a99.83,99.83,0,0,1-50.26-87.74L26,509.82,404.14,726.15,549,809C586,833.38,627.25,831.8,665.22,812Z" transform="translate(-21.65 -12.43)"/><path class="cls-2" d="M218.86,187.48l120.88,69.15c-33-18.7-74.08,4.89-74.49,42.91L263,505.87l-158.38-90.6C12.58,367.45-3,259,58.46,190.7l.17.15C108.43,147.18,167.16,154.16,218.86,187.48Z" transform="translate(-21.65 -12.43)"/></svg>